<svg width="18" height="16" fill="none" xmlns="http://www.w3.org/2000/svg"><path d="M10.414 1.692H.661c-.37 0-.661.29-.661.66 0 .37.29.661.66.661h9.754a2.363 2.363 0 0 0 2.273 1.692c1.058 0 1.983-.714 2.247-1.692h2.405c.37 0 .661-.29.661-.66 0-.37-.29-.661-.66-.661h-2.406a2.355 2.355 0 0 0-4.52 0Zm3.278.66a1.032 1.032 0 1 1-1.03-1.03c.527 0 1.03.449 1.03 1.03ZM2.485 6.978H.66c-.37 0-.661.29-.661.66 0 .37.29.662.66.662h1.825A2.363 2.363 0 0 0 4.758 9.99c1.057 0 1.982-.713 2.246-1.691H17.34c.37 0 .661-.291.661-.661 0-.37-.29-.661-.66-.661H7.003a2.355 2.355 0 0 0-4.52 0Zm3.277.66c0 .582-.476 1.032-1.03 1.032-.556 0-1.032-.45-1.032-1.031a1.032 1.032 0 0 1 2.062 0ZM7.242 12.793H.661c-.37 0-.661.29-.661.66 0 .37.29.662.66.662h6.582a2.363 2.363 0 0 0 2.273 1.691c1.058 0 1.983-.713 2.247-1.691h5.577c.37 0 .661-.291.661-.661 0-.37-.29-.661-.66-.661h-5.578a2.355 2.355 0 0 0-4.52 0Zm3.278.66a1.032 1.032 0 0 1-2.062 0 1.032 1.032 0 0 1 2.062 0Z" fill="#EB7047"/></svg>