<?xml version="1.0" encoding="utf-8"?><svg xmlns="http://www.w3.org/2000/svg" xmlns:xlink="http://www.w3.org/1999/xlink"><symbol viewBox="0 0 512 512" id="svg--added" xmlns="http://www.w3.org/2000/svg"><!--! Font Awesome Pro 6.1.1 by @fontawesome - https://fontawesome.com License - https://fontawesome.com/license (Commercial License) Copyright 2022 Fonticons, Inc.--><path d="M0 190.9v-5.8c0-69.9 50.52-129.52 119.4-141 44.7-7.59 92 7.27 124.6 39.92L256 96l11.1-11.98C300.6 51.37 347 36.51 392.6 44.1c68.9 11.48 119.4 71.1 119.4 141v5.8c0 41.5-17.2 81.2-47.6 109.5L283.7 469.1c-7.5 7-17.4 10.9-27.7 10.9s-20.2-3.9-27.7-10.9L47.59 300.4C17.23 272.1 0 232.4 0 190.9z"/></symbol><symbol viewBox="0 0 18 16" id="svg--filter" xmlns="http://www.w3.org/2000/svg"><path d="M10.414 1.692H.661c-.37 0-.661.29-.661.66 0 .37.29.661.66.661h9.754a2.363 2.363 0 0 0 2.273 1.692c1.058 0 1.983-.714 2.247-1.692h2.405c.37 0 .661-.29.661-.66 0-.37-.29-.661-.66-.661h-2.406a2.355 2.355 0 0 0-4.52 0Zm3.278.66a1.032 1.032 0 1 1-1.03-1.03c.527 0 1.03.449 1.03 1.03ZM2.485 6.978H.66c-.37 0-.661.29-.661.66 0 .37.29.662.66.662h1.825a2.363 2.363 0 0 0 2.274 1.69c1.057 0 1.982-.713 2.246-1.691H17.34c.37 0 .661-.291.661-.661 0-.37-.29-.661-.66-.661H7.003a2.355 2.355 0 0 0-4.52 0Zm3.277.66c0 .582-.476 1.032-1.03 1.032-.556 0-1.032-.45-1.032-1.031a1.032 1.032 0 0 1 2.062 0Zm1.48 5.155H.661c-.37 0-.661.29-.661.66 0 .37.29.662.66.662h6.582a2.363 2.363 0 0 0 2.273 1.691c1.058 0 1.983-.713 2.247-1.691h5.577c.37 0 .661-.291.661-.661 0-.37-.29-.661-.66-.661h-5.578a2.355 2.355 0 0 0-4.52 0Zm3.278.66a1.032 1.032 0 0 1-2.062 0 1.032 1.032 0 0 1 2.062 0Z"/></symbol></svg>